<mxfile host="app.diagrams.net" modified="2024-03-06T17:00:05.624Z" agent="Mozilla/5.0 (Windows NT 10.0; Win64; x64; rv:123.0) Gecko/20100101 Firefox/123.0" etag="z89-j3oc_vQ7eR5sM1Gr" version="24.0.1" type="github" pages="3">
  <diagram name="ISA88" id="58cdce13-f638-feb5-8d6f-7d28b1aa9fa0">
    <mxGraphModel dx="1434" dy="782" grid="1" gridSize="10" guides="1" tooltips="1" connect="1" arrows="1" fold="1" page="1" pageScale="1" pageWidth="1169" pageHeight="827" background="none" math="0" shadow="0">
      <root>
        <mxCell id="0" />
        <mxCell id="1" parent="0" />
        <mxCell id="aAmiJ_XI5m1NhXgfSYHL-29" value="" style="rounded=0;whiteSpace=wrap;html=1;fontFamily=Helvetica;fontSize=11;fontColor=default;labelBackgroundColor=default;fillColor=#E6E6E6;" parent="1" vertex="1">
          <mxGeometry x="80" y="550" width="970" height="110" as="geometry" />
        </mxCell>
        <mxCell id="aAmiJ_XI5m1NhXgfSYHL-28" value="" style="rounded=0;whiteSpace=wrap;html=1;fontFamily=Helvetica;fontSize=11;fontColor=default;labelBackgroundColor=default;fillColor=#E6E6E6;" parent="1" vertex="1">
          <mxGeometry x="80" y="440" width="970" height="110" as="geometry" />
        </mxCell>
        <mxCell id="aAmiJ_XI5m1NhXgfSYHL-25" value="" style="rounded=0;whiteSpace=wrap;html=1;fontFamily=Helvetica;fontSize=11;fontColor=default;labelBackgroundColor=default;fillColor=#E6E6E6;" parent="1" vertex="1">
          <mxGeometry x="80" y="80" width="970" height="360" as="geometry" />
        </mxCell>
        <mxCell id="aAmiJ_XI5m1NhXgfSYHL-9" value="" style="edgeStyle=orthogonalEdgeStyle;rounded=0;orthogonalLoop=1;jettySize=auto;html=1;" parent="1" source="382b91b5511bd0f7-7" target="aAmiJ_XI5m1NhXgfSYHL-3" edge="1">
          <mxGeometry relative="1" as="geometry" />
        </mxCell>
        <mxCell id="382b91b5511bd0f7-7" value="Held" style="rounded=0;whiteSpace=wrap;html=1;arcSize=24;fillColor=#FF8000;strokeColor=#000000;shadow=0;comic=0;labelBackgroundColor=none;fontFamily=Verdana;fontSize=12;fontColor=#000000;align=center;rotation=0;" parent="1" vertex="1">
          <mxGeometry x="505" y="100" width="120" height="60" as="geometry" />
        </mxCell>
        <mxCell id="qw5E-p2FazVa0dcF7oxH-25" style="edgeStyle=orthogonalEdgeStyle;rounded=0;orthogonalLoop=1;jettySize=auto;html=1;entryX=0.5;entryY=1;entryDx=0;entryDy=0;strokeColor=default;align=center;verticalAlign=middle;fontFamily=Helvetica;fontSize=11;fontColor=default;labelBackgroundColor=default;endArrow=block;endFill=1;exitX=0.75;exitY=0;exitDx=0;exitDy=0;" parent="1" source="382b91b5511bd0f7-10" edge="1">
          <mxGeometry relative="1" as="geometry">
            <mxPoint x="765" y="160" as="targetPoint" />
          </mxGeometry>
        </mxCell>
        <mxCell id="aAmiJ_XI5m1NhXgfSYHL-33" value="Hold" style="edgeLabel;html=1;align=center;verticalAlign=middle;resizable=0;points=[];fontFamily=Helvetica;fontSize=11;fontColor=default;labelBackgroundColor=#E6E6E6;" parent="qw5E-p2FazVa0dcF7oxH-25" vertex="1" connectable="0">
          <mxGeometry x="-0.2296" y="-2" relative="1" as="geometry">
            <mxPoint x="1" y="1" as="offset" />
          </mxGeometry>
        </mxCell>
        <mxCell id="aAmiJ_XI5m1NhXgfSYHL-14" style="edgeStyle=orthogonalEdgeStyle;rounded=0;orthogonalLoop=1;jettySize=auto;html=1;exitX=1;exitY=0.5;exitDx=0;exitDy=0;entryX=0;entryY=0.5;entryDx=0;entryDy=0;strokeColor=default;align=center;verticalAlign=middle;fontFamily=Helvetica;fontSize=11;fontColor=default;labelBackgroundColor=default;endArrow=block;endFill=1;" parent="1" source="382b91b5511bd0f7-10" target="aAmiJ_XI5m1NhXgfSYHL-12" edge="1">
          <mxGeometry relative="1" as="geometry" />
        </mxCell>
        <mxCell id="aAmiJ_XI5m1NhXgfSYHL-36" value="Complete" style="edgeLabel;html=1;align=center;verticalAlign=middle;resizable=0;points=[];fontFamily=Helvetica;fontSize=11;fontColor=default;labelBackgroundColor=#E6E6E6;" parent="aAmiJ_XI5m1NhXgfSYHL-14" vertex="1" connectable="0">
          <mxGeometry x="-0.358" y="-2" relative="1" as="geometry">
            <mxPoint as="offset" />
          </mxGeometry>
        </mxCell>
        <mxCell id="382b91b5511bd0f7-10" value="Execute" style="rounded=0;whiteSpace=wrap;html=1;arcSize=24;fillColor=#FF8000;strokeColor=#000000;shadow=0;comic=0;labelBackgroundColor=none;fontFamily=Verdana;fontSize=12;fontColor=#000000;align=center;" parent="1" vertex="1">
          <mxGeometry x="505" y="240" width="120" height="60" as="geometry" />
        </mxCell>
        <mxCell id="qw5E-p2FazVa0dcF7oxH-10" value="Paused" style="rounded=0;whiteSpace=wrap;html=1;arcSize=24;fillColor=#FF8000;strokeColor=#000000;shadow=0;comic=0;labelBackgroundColor=none;fontFamily=Verdana;fontSize=12;fontColor=#000000;align=center;" parent="1" vertex="1">
          <mxGeometry x="505" y="360" width="120" height="60" as="geometry" />
        </mxCell>
        <mxCell id="qw5E-p2FazVa0dcF7oxH-51" value="" style="edgeStyle=orthogonalEdgeStyle;rounded=0;orthogonalLoop=1;jettySize=auto;html=1;strokeColor=default;align=center;verticalAlign=middle;fontFamily=Helvetica;fontSize=11;fontColor=default;labelBackgroundColor=default;endArrow=block;endFill=1;" parent="1" target="382b91b5511bd0f7-7" edge="1">
          <mxGeometry relative="1" as="geometry">
            <mxPoint x="705" y="130" as="sourcePoint" />
          </mxGeometry>
        </mxCell>
        <mxCell id="qw5E-p2FazVa0dcF7oxH-49" value="" style="edgeStyle=orthogonalEdgeStyle;rounded=0;orthogonalLoop=1;jettySize=auto;html=1;strokeColor=default;align=center;verticalAlign=middle;fontFamily=Helvetica;fontSize=11;fontColor=default;labelBackgroundColor=default;endArrow=block;endFill=1;" parent="1" target="qw5E-p2FazVa0dcF7oxH-10" edge="1">
          <mxGeometry relative="1" as="geometry">
            <mxPoint x="715" y="390" as="sourcePoint" />
          </mxGeometry>
        </mxCell>
        <mxCell id="qw5E-p2FazVa0dcF7oxH-26" style="edgeStyle=orthogonalEdgeStyle;rounded=0;orthogonalLoop=1;jettySize=auto;html=1;entryX=0.5;entryY=0;entryDx=0;entryDy=0;strokeColor=default;align=center;verticalAlign=middle;fontFamily=Helvetica;fontSize=11;fontColor=default;labelBackgroundColor=default;endArrow=block;endFill=1;exitX=0.75;exitY=1;exitDx=0;exitDy=0;" parent="1" source="382b91b5511bd0f7-10" edge="1">
          <mxGeometry relative="1" as="geometry">
            <mxPoint x="775" y="360" as="targetPoint" />
          </mxGeometry>
        </mxCell>
        <mxCell id="aAmiJ_XI5m1NhXgfSYHL-34" value="Pause" style="edgeLabel;html=1;align=center;verticalAlign=middle;resizable=0;points=[];fontFamily=Helvetica;fontSize=11;fontColor=default;labelBackgroundColor=#E6E6E6;" parent="qw5E-p2FazVa0dcF7oxH-26" vertex="1" connectable="0">
          <mxGeometry x="-0.0936" y="2" relative="1" as="geometry">
            <mxPoint as="offset" />
          </mxGeometry>
        </mxCell>
        <mxCell id="qw5E-p2FazVa0dcF7oxH-29" value="" style="edgeStyle=orthogonalEdgeStyle;rounded=0;orthogonalLoop=1;jettySize=auto;html=1;strokeColor=default;align=center;verticalAlign=middle;fontFamily=Helvetica;fontSize=11;fontColor=default;labelBackgroundColor=default;endArrow=block;endFill=1;entryX=0;entryY=0.5;entryDx=0;entryDy=0;" parent="1" source="qw5E-p2FazVa0dcF7oxH-27" target="aAmiJ_XI5m1NhXgfSYHL-1" edge="1">
          <mxGeometry relative="1" as="geometry">
            <mxPoint x="225" y="270" as="targetPoint" />
          </mxGeometry>
        </mxCell>
        <mxCell id="aAmiJ_XI5m1NhXgfSYHL-31" value="Start" style="edgeLabel;html=1;align=center;verticalAlign=middle;resizable=0;points=[];fontFamily=Helvetica;fontSize=11;fontColor=default;labelBackgroundColor=#E6E6E6;" parent="qw5E-p2FazVa0dcF7oxH-29" vertex="1" connectable="0">
          <mxGeometry x="-0.25" y="3" relative="1" as="geometry">
            <mxPoint as="offset" />
          </mxGeometry>
        </mxCell>
        <mxCell id="qw5E-p2FazVa0dcF7oxH-27" value="Idle" style="rounded=0;whiteSpace=wrap;html=1;arcSize=24;fillColor=#FF8000;strokeColor=#000000;shadow=0;comic=0;labelBackgroundColor=none;fontFamily=Verdana;fontSize=12;fontColor=#000000;align=center;" parent="1" vertex="1">
          <mxGeometry x="100" y="240" width="120" height="60" as="geometry" />
        </mxCell>
        <mxCell id="qw5E-p2FazVa0dcF7oxH-45" style="edgeStyle=orthogonalEdgeStyle;rounded=0;orthogonalLoop=1;jettySize=auto;html=1;entryX=0.5;entryY=1;entryDx=0;entryDy=0;strokeColor=default;align=center;verticalAlign=middle;fontFamily=Helvetica;fontSize=11;fontColor=default;labelBackgroundColor=default;endArrow=block;endFill=1;" parent="1" source="qw5E-p2FazVa0dcF7oxH-32" target="qw5E-p2FazVa0dcF7oxH-27" edge="1">
          <mxGeometry relative="1" as="geometry">
            <mxPoint x="95" y="420" as="targetPoint" />
          </mxGeometry>
        </mxCell>
        <mxCell id="qw5E-p2FazVa0dcF7oxH-32" value="Stopped" style="rounded=0;whiteSpace=wrap;html=1;arcSize=24;fillColor=#FF8000;strokeColor=#000000;shadow=0;comic=0;labelBackgroundColor=none;fontFamily=Verdana;fontSize=12;fontColor=#000000;align=center;" parent="1" vertex="1">
          <mxGeometry x="505" y="470" width="120" height="60" as="geometry" />
        </mxCell>
        <mxCell id="qw5E-p2FazVa0dcF7oxH-46" style="edgeStyle=orthogonalEdgeStyle;rounded=0;orthogonalLoop=1;jettySize=auto;html=1;strokeColor=default;align=center;verticalAlign=middle;fontFamily=Helvetica;fontSize=11;fontColor=default;labelBackgroundColor=default;endArrow=block;endFill=1;entryX=0.5;entryY=1;entryDx=0;entryDy=0;" parent="1" source="qw5E-p2FazVa0dcF7oxH-33" target="qw5E-p2FazVa0dcF7oxH-27" edge="1">
          <mxGeometry relative="1" as="geometry">
            <mxPoint x="95" y="420.0000000000002" as="targetPoint" />
          </mxGeometry>
        </mxCell>
        <mxCell id="qw5E-p2FazVa0dcF7oxH-33" value="Aborted" style="rounded=0;whiteSpace=wrap;html=1;arcSize=24;fillColor=#FF8000;strokeColor=#000000;shadow=0;comic=0;labelBackgroundColor=none;fontFamily=Verdana;fontSize=12;fontColor=#000000;align=center;" parent="1" vertex="1">
          <mxGeometry x="505" y="580" width="120" height="60" as="geometry" />
        </mxCell>
        <mxCell id="aAmiJ_XI5m1NhXgfSYHL-19" style="edgeStyle=orthogonalEdgeStyle;rounded=0;orthogonalLoop=1;jettySize=auto;html=1;exitX=0.5;exitY=1;exitDx=0;exitDy=0;entryX=0.5;entryY=1;entryDx=0;entryDy=0;strokeColor=default;align=center;verticalAlign=middle;fontFamily=Helvetica;fontSize=11;fontColor=default;labelBackgroundColor=default;endArrow=block;endFill=1;" parent="1" source="qw5E-p2FazVa0dcF7oxH-34" target="qw5E-p2FazVa0dcF7oxH-27" edge="1">
          <mxGeometry relative="1" as="geometry">
            <Array as="points">
              <mxPoint x="970" y="460" />
              <mxPoint x="160" y="460" />
            </Array>
          </mxGeometry>
        </mxCell>
        <mxCell id="aAmiJ_XI5m1NhXgfSYHL-39" value="Reset" style="edgeLabel;html=1;align=center;verticalAlign=middle;resizable=0;points=[];fontFamily=Helvetica;fontSize=11;fontColor=default;labelBackgroundColor=#E6E6E6;" parent="aAmiJ_XI5m1NhXgfSYHL-19" vertex="1" connectable="0">
          <mxGeometry x="0.8956" y="2" relative="1" as="geometry">
            <mxPoint as="offset" />
          </mxGeometry>
        </mxCell>
        <mxCell id="qw5E-p2FazVa0dcF7oxH-34" value="Completed" style="rounded=0;whiteSpace=wrap;html=1;arcSize=24;fillColor=#FF8000;strokeColor=#000000;shadow=0;comic=0;labelBackgroundColor=none;fontFamily=Verdana;fontSize=12;fontColor=#000000;align=center;" parent="1" vertex="1">
          <mxGeometry x="910" y="240" width="120" height="60" as="geometry" />
        </mxCell>
        <mxCell id="qw5E-p2FazVa0dcF7oxH-41" value="" style="edgeStyle=orthogonalEdgeStyle;rounded=0;orthogonalLoop=1;jettySize=auto;html=1;strokeColor=default;align=center;verticalAlign=middle;fontFamily=Helvetica;fontSize=11;fontColor=default;labelBackgroundColor=default;endArrow=block;endFill=1;" parent="1" target="qw5E-p2FazVa0dcF7oxH-32" edge="1">
          <mxGeometry relative="1" as="geometry">
            <mxPoint x="700" y="500" as="sourcePoint" />
          </mxGeometry>
        </mxCell>
        <mxCell id="qw5E-p2FazVa0dcF7oxH-43" value="" style="edgeStyle=orthogonalEdgeStyle;rounded=0;orthogonalLoop=1;jettySize=auto;html=1;strokeColor=default;align=center;verticalAlign=middle;fontFamily=Helvetica;fontSize=11;fontColor=default;labelBackgroundColor=default;endArrow=block;endFill=1;exitX=0.033;exitY=0.5;exitDx=0;exitDy=0;exitPerimeter=0;" parent="1" source="aAmiJ_XI5m1NhXgfSYHL-21" target="qw5E-p2FazVa0dcF7oxH-33" edge="1">
          <mxGeometry relative="1" as="geometry">
            <mxPoint x="700" y="610" as="sourcePoint" />
          </mxGeometry>
        </mxCell>
        <mxCell id="aAmiJ_XI5m1NhXgfSYHL-18" style="edgeStyle=orthogonalEdgeStyle;rounded=0;orthogonalLoop=1;jettySize=auto;html=1;exitX=1;exitY=0.5;exitDx=0;exitDy=0;entryX=0;entryY=0.5;entryDx=0;entryDy=0;strokeColor=default;align=center;verticalAlign=middle;fontFamily=Helvetica;fontSize=11;fontColor=default;labelBackgroundColor=default;endArrow=block;endFill=1;" parent="1" source="aAmiJ_XI5m1NhXgfSYHL-1" target="382b91b5511bd0f7-10" edge="1">
          <mxGeometry relative="1" as="geometry" />
        </mxCell>
        <mxCell id="aAmiJ_XI5m1NhXgfSYHL-1" value="Starting" style="rounded=0;whiteSpace=wrap;html=1;arcSize=24;fillColor=#B3B3B3;strokeColor=#000000;shadow=0;comic=0;labelBackgroundColor=none;fontFamily=Verdana;fontSize=12;fontColor=#000000;align=center;" parent="1" vertex="1">
          <mxGeometry x="300" y="240" width="120" height="60" as="geometry" />
        </mxCell>
        <mxCell id="aAmiJ_XI5m1NhXgfSYHL-2" value="Holding" style="rounded=0;whiteSpace=wrap;html=1;arcSize=24;fillColor=#B3B3B3;strokeColor=#000000;shadow=0;comic=0;labelBackgroundColor=none;fontFamily=Verdana;fontSize=12;fontColor=#000000;align=center;" parent="1" vertex="1">
          <mxGeometry x="706" y="100" width="120" height="60" as="geometry" />
        </mxCell>
        <mxCell id="aAmiJ_XI5m1NhXgfSYHL-16" style="edgeStyle=orthogonalEdgeStyle;rounded=0;orthogonalLoop=1;jettySize=auto;html=1;exitX=0.5;exitY=1;exitDx=0;exitDy=0;entryX=0.25;entryY=0;entryDx=0;entryDy=0;strokeColor=default;align=center;verticalAlign=middle;fontFamily=Helvetica;fontSize=11;fontColor=default;labelBackgroundColor=default;endArrow=block;endFill=1;" parent="1" source="aAmiJ_XI5m1NhXgfSYHL-3" target="382b91b5511bd0f7-10" edge="1">
          <mxGeometry relative="1" as="geometry" />
        </mxCell>
        <mxCell id="aAmiJ_XI5m1NhXgfSYHL-32" value="Start" style="edgeLabel;html=1;align=center;verticalAlign=middle;resizable=0;points=[];fontFamily=Helvetica;fontSize=11;fontColor=default;labelBackgroundColor=#E6E6E6;" parent="aAmiJ_XI5m1NhXgfSYHL-16" vertex="1" connectable="0">
          <mxGeometry x="-0.2" relative="1" as="geometry">
            <mxPoint x="48" y="-71" as="offset" />
          </mxGeometry>
        </mxCell>
        <mxCell id="aAmiJ_XI5m1NhXgfSYHL-3" value="Unholding" style="rounded=0;whiteSpace=wrap;html=1;arcSize=24;fillColor=#B3B3B3;strokeColor=#000000;shadow=0;comic=0;labelBackgroundColor=none;fontFamily=Verdana;fontSize=12;fontColor=#000000;align=center;" parent="1" vertex="1">
          <mxGeometry x="300" y="100" width="120" height="60" as="geometry" />
        </mxCell>
        <mxCell id="aAmiJ_XI5m1NhXgfSYHL-4" value="Pausing" style="rounded=0;whiteSpace=wrap;html=1;arcSize=24;fillColor=#B3B3B3;strokeColor=#000000;shadow=0;comic=0;labelBackgroundColor=none;fontFamily=Verdana;fontSize=12;fontColor=#000000;align=center;" parent="1" vertex="1">
          <mxGeometry x="706" y="360" width="120" height="60" as="geometry" />
        </mxCell>
        <mxCell id="aAmiJ_XI5m1NhXgfSYHL-6" value="" style="edgeStyle=orthogonalEdgeStyle;rounded=0;orthogonalLoop=1;jettySize=auto;html=1;strokeColor=default;align=center;verticalAlign=middle;fontFamily=Helvetica;fontSize=11;fontColor=default;labelBackgroundColor=default;endArrow=block;endFill=1;" parent="1" source="qw5E-p2FazVa0dcF7oxH-10" target="aAmiJ_XI5m1NhXgfSYHL-5" edge="1">
          <mxGeometry relative="1" as="geometry">
            <mxPoint x="505" y="390" as="sourcePoint" />
            <mxPoint x="285" y="300" as="targetPoint" />
          </mxGeometry>
        </mxCell>
        <mxCell id="aAmiJ_XI5m1NhXgfSYHL-17" style="edgeStyle=orthogonalEdgeStyle;rounded=0;orthogonalLoop=1;jettySize=auto;html=1;exitX=0.5;exitY=0;exitDx=0;exitDy=0;entryX=0.25;entryY=1;entryDx=0;entryDy=0;strokeColor=default;align=center;verticalAlign=middle;fontFamily=Helvetica;fontSize=11;fontColor=default;labelBackgroundColor=default;endArrow=block;endFill=1;" parent="1" source="aAmiJ_XI5m1NhXgfSYHL-5" target="382b91b5511bd0f7-10" edge="1">
          <mxGeometry relative="1" as="geometry" />
        </mxCell>
        <mxCell id="aAmiJ_XI5m1NhXgfSYHL-35" value="Start" style="edgeLabel;html=1;align=center;verticalAlign=middle;resizable=0;points=[];fontFamily=Helvetica;fontSize=11;fontColor=default;labelBackgroundColor=#E6E6E6;" parent="aAmiJ_XI5m1NhXgfSYHL-17" vertex="1" connectable="0">
          <mxGeometry x="0.0383" y="2" relative="1" as="geometry">
            <mxPoint x="8" y="62" as="offset" />
          </mxGeometry>
        </mxCell>
        <mxCell id="aAmiJ_XI5m1NhXgfSYHL-5" value="Resuming" style="rounded=0;whiteSpace=wrap;html=1;arcSize=24;fillColor=#B3B3B3;strokeColor=#000000;shadow=0;comic=0;labelBackgroundColor=none;fontFamily=Verdana;fontSize=12;fontColor=#000000;align=center;" parent="1" vertex="1">
          <mxGeometry x="300" y="360" width="120" height="60" as="geometry" />
        </mxCell>
        <mxCell id="aAmiJ_XI5m1NhXgfSYHL-15" value="" style="edgeStyle=orthogonalEdgeStyle;rounded=0;orthogonalLoop=1;jettySize=auto;html=1;strokeColor=default;align=center;verticalAlign=middle;fontFamily=Helvetica;fontSize=11;fontColor=default;labelBackgroundColor=default;endArrow=block;endFill=1;" parent="1" source="aAmiJ_XI5m1NhXgfSYHL-12" target="qw5E-p2FazVa0dcF7oxH-34" edge="1">
          <mxGeometry relative="1" as="geometry" />
        </mxCell>
        <mxCell id="aAmiJ_XI5m1NhXgfSYHL-12" value="Completing" style="rounded=0;whiteSpace=wrap;html=1;arcSize=24;fillColor=#B3B3B3;strokeColor=#000000;shadow=0;comic=0;labelBackgroundColor=none;fontFamily=Verdana;fontSize=12;fontColor=#000000;align=center;" parent="1" vertex="1">
          <mxGeometry x="706" y="240" width="120" height="60" as="geometry" />
        </mxCell>
        <mxCell id="aAmiJ_XI5m1NhXgfSYHL-20" value="Stopping" style="rounded=0;whiteSpace=wrap;html=1;arcSize=24;fillColor=#B3B3B3;strokeColor=#000000;shadow=0;comic=0;labelBackgroundColor=none;fontFamily=Verdana;fontSize=12;fontColor=#000000;align=center;" parent="1" vertex="1">
          <mxGeometry x="700" y="470" width="120" height="60" as="geometry" />
        </mxCell>
        <mxCell id="aAmiJ_XI5m1NhXgfSYHL-21" value="Aborting" style="rounded=0;whiteSpace=wrap;html=1;arcSize=24;fillColor=#B3B3B3;strokeColor=#000000;shadow=0;comic=0;labelBackgroundColor=none;fontFamily=Verdana;fontSize=12;fontColor=#000000;align=center;" parent="1" vertex="1">
          <mxGeometry x="706" y="580" width="120" height="60" as="geometry" />
        </mxCell>
        <mxCell id="aAmiJ_XI5m1NhXgfSYHL-22" value="" style="edgeStyle=orthogonalEdgeStyle;rounded=0;orthogonalLoop=1;jettySize=auto;html=1;strokeColor=default;align=center;verticalAlign=middle;fontFamily=Helvetica;fontSize=11;fontColor=default;labelBackgroundColor=default;endArrow=block;endFill=1;" parent="1" edge="1">
          <mxGeometry relative="1" as="geometry">
            <mxPoint x="895" y="499.5" as="sourcePoint" />
            <mxPoint x="820" y="499.5" as="targetPoint" />
          </mxGeometry>
        </mxCell>
        <mxCell id="aAmiJ_XI5m1NhXgfSYHL-37" value="Stop" style="edgeLabel;html=1;align=center;verticalAlign=middle;resizable=0;points=[];fontFamily=Helvetica;fontSize=11;fontColor=default;labelBackgroundColor=#E6E6E6;" parent="aAmiJ_XI5m1NhXgfSYHL-22" vertex="1" connectable="0">
          <mxGeometry x="-0.2" y="3" relative="1" as="geometry">
            <mxPoint as="offset" />
          </mxGeometry>
        </mxCell>
        <mxCell id="aAmiJ_XI5m1NhXgfSYHL-23" value="" style="edgeStyle=orthogonalEdgeStyle;rounded=0;orthogonalLoop=1;jettySize=auto;html=1;strokeColor=default;align=center;verticalAlign=middle;fontFamily=Helvetica;fontSize=11;fontColor=default;labelBackgroundColor=default;endArrow=block;endFill=1;" parent="1" edge="1">
          <mxGeometry relative="1" as="geometry">
            <mxPoint x="901" y="609.5" as="sourcePoint" />
            <mxPoint x="826" y="609.5" as="targetPoint" />
          </mxGeometry>
        </mxCell>
        <mxCell id="aAmiJ_XI5m1NhXgfSYHL-38" value="Abort" style="edgeLabel;html=1;align=center;verticalAlign=middle;resizable=0;points=[];fontFamily=Helvetica;fontSize=11;fontColor=default;labelBackgroundColor=#E6E6E6;" parent="aAmiJ_XI5m1NhXgfSYHL-23" vertex="1" connectable="0">
          <mxGeometry x="-0.3067" y="-2" relative="1" as="geometry">
            <mxPoint as="offset" />
          </mxGeometry>
        </mxCell>
        <mxCell id="aAmiJ_XI5m1NhXgfSYHL-27" value="Running" style="rounded=0;whiteSpace=wrap;html=1;arcSize=24;fillColor=none;strokeColor=none;shadow=0;comic=0;labelBackgroundColor=none;fontFamily=Verdana;fontSize=12;fontColor=#000000;align=center;" parent="1" vertex="1">
          <mxGeometry x="80" y="80" width="120" height="60" as="geometry" />
        </mxCell>
      </root>
    </mxGraphModel>
  </diagram>
  <diagram name="Observer" id="914L2Pp38VZ-iM2Vx1l2">
    <mxGraphModel dx="1434" dy="782" grid="1" gridSize="10" guides="1" tooltips="1" connect="1" arrows="1" fold="1" page="1" pageScale="1" pageWidth="1169" pageHeight="827" math="0" shadow="0">
      <root>
        <mxCell id="0" />
        <mxCell id="1" parent="0" />
        <mxCell id="Qbpo_AQR7p0ZwZ3TXR_l-1" value="FB_Observer" style="swimlane;fontStyle=1;align=center;verticalAlign=top;childLayout=stackLayout;horizontal=1;startSize=26;horizontalStack=0;resizeParent=1;resizeParentMax=0;resizeLast=0;collapsible=1;marginBottom=0;whiteSpace=wrap;html=1;fontFamily=Helvetica;fontSize=11;fontColor=default;labelBackgroundColor=default;" parent="1" vertex="1">
          <mxGeometry x="180" y="180" width="160" height="112" as="geometry" />
        </mxCell>
        <mxCell id="Qbpo_AQR7p0ZwZ3TXR_l-3" value="" style="line;strokeWidth=1;fillColor=none;align=left;verticalAlign=middle;spacingTop=-1;spacingLeft=3;spacingRight=3;rotatable=0;labelPosition=right;points=[];portConstraint=eastwest;strokeColor=inherit;fontFamily=Helvetica;fontSize=11;fontColor=default;labelBackgroundColor=default;" parent="Qbpo_AQR7p0ZwZ3TXR_l-1" vertex="1">
          <mxGeometry y="26" width="160" height="8" as="geometry" />
        </mxCell>
        <mxCell id="Qbpo_AQR7p0ZwZ3TXR_l-5" value="+ M_Attach" style="text;strokeColor=none;fillColor=none;align=left;verticalAlign=top;spacingLeft=4;spacingRight=4;overflow=hidden;rotatable=0;points=[[0,0.5],[1,0.5]];portConstraint=eastwest;whiteSpace=wrap;html=1;fontFamily=Helvetica;fontSize=11;fontColor=default;labelBackgroundColor=default;" parent="Qbpo_AQR7p0ZwZ3TXR_l-1" vertex="1">
          <mxGeometry y="34" width="160" height="26" as="geometry" />
        </mxCell>
        <mxCell id="Qbpo_AQR7p0ZwZ3TXR_l-4" value="+ M_Dettach" style="text;strokeColor=none;fillColor=none;align=left;verticalAlign=top;spacingLeft=4;spacingRight=4;overflow=hidden;rotatable=0;points=[[0,0.5],[1,0.5]];portConstraint=eastwest;whiteSpace=wrap;html=1;fontFamily=Helvetica;fontSize=11;fontColor=default;labelBackgroundColor=default;" parent="Qbpo_AQR7p0ZwZ3TXR_l-1" vertex="1">
          <mxGeometry y="60" width="160" height="26" as="geometry" />
        </mxCell>
        <mxCell id="Qbpo_AQR7p0ZwZ3TXR_l-6" value="+ M_Notify" style="text;strokeColor=none;fillColor=none;align=left;verticalAlign=top;spacingLeft=4;spacingRight=4;overflow=hidden;rotatable=0;points=[[0,0.5],[1,0.5]];portConstraint=eastwest;whiteSpace=wrap;html=1;fontFamily=Helvetica;fontSize=11;fontColor=default;labelBackgroundColor=default;" parent="Qbpo_AQR7p0ZwZ3TXR_l-1" vertex="1">
          <mxGeometry y="86" width="160" height="26" as="geometry" />
        </mxCell>
      </root>
    </mxGraphModel>
  </diagram>
  <diagram name="Concept" id="hIiaKfXWYesgnnnfrlfd">
    <mxGraphModel dx="1434" dy="782" grid="1" gridSize="10" guides="1" tooltips="1" connect="1" arrows="1" fold="1" page="1" pageScale="1" pageWidth="1169" pageHeight="827" math="0" shadow="0">
      <root>
        <mxCell id="0" />
        <mxCell id="1" parent="0" />
        <mxCell id="HTkEX30O9q5oVhzSK92n-1" value="Concept" style="swimlane;startSize=20;horizontal=1;containerType=tree;newEdgeStyle={&quot;edgeStyle&quot;:&quot;elbowEdgeStyle&quot;,&quot;startArrow&quot;:&quot;none&quot;,&quot;endArrow&quot;:&quot;none&quot;};" parent="1" vertex="1">
          <mxGeometry x="230" y="150" width="680" height="220" as="geometry" />
        </mxCell>
        <mxCell id="HTkEX30O9q5oVhzSK92n-10" style="edgeStyle=elbowEdgeStyle;rounded=0;orthogonalLoop=1;jettySize=auto;html=1;startArrow=none;endArrow=none;exitX=0.5;exitY=0;exitDx=0;exitDy=0;" parent="HTkEX30O9q5oVhzSK92n-1" source="HTkEX30O9q5oVhzSK92n-7" edge="1">
          <mxGeometry relative="1" as="geometry">
            <mxPoint x="200" y="120" as="targetPoint" />
            <Array as="points">
              <mxPoint x="340" y="130" />
            </Array>
          </mxGeometry>
        </mxCell>
        <mxCell id="HTkEX30O9q5oVhzSK92n-7" value="FB_Cylinder" style="whiteSpace=wrap;html=1;align=center;verticalAlign=middle;treeFolding=1;treeMoving=1;newEdgeStyle={&quot;edgeStyle&quot;:&quot;elbowEdgeStyle&quot;,&quot;startArrow&quot;:&quot;none&quot;,&quot;endArrow&quot;:&quot;none&quot;};" parent="HTkEX30O9q5oVhzSK92n-1" vertex="1">
          <mxGeometry x="290" y="140" width="100" height="60" as="geometry" />
        </mxCell>
        <UserObject label="FB_Component" treeRoot="1" id="HTkEX30O9q5oVhzSK92n-4">
          <mxCell style="whiteSpace=wrap;html=1;align=center;treeFolding=1;treeMoving=1;newEdgeStyle={&quot;edgeStyle&quot;:&quot;elbowEdgeStyle&quot;,&quot;startArrow&quot;:&quot;none&quot;,&quot;endArrow&quot;:&quot;none&quot;};" parent="HTkEX30O9q5oVhzSK92n-1" vertex="1">
            <mxGeometry x="280" y="40" width="120" height="60" as="geometry" />
          </mxCell>
        </UserObject>
        <mxCell id="HTkEX30O9q5oVhzSK92n-3" value="" style="edgeStyle=elbowEdgeStyle;elbow=vertical;sourcePerimeterSpacing=0;targetPerimeterSpacing=0;startArrow=none;endArrow=none;rounded=0;curved=0;" parent="HTkEX30O9q5oVhzSK92n-1" source="HTkEX30O9q5oVhzSK92n-4" target="HTkEX30O9q5oVhzSK92n-6" edge="1">
          <mxGeometry relative="1" as="geometry" />
        </mxCell>
        <mxCell id="HTkEX30O9q5oVhzSK92n-6" value="FB_Cylinder" style="whiteSpace=wrap;html=1;align=center;verticalAlign=middle;treeFolding=1;treeMoving=1;newEdgeStyle={&quot;edgeStyle&quot;:&quot;elbowEdgeStyle&quot;,&quot;startArrow&quot;:&quot;none&quot;,&quot;endArrow&quot;:&quot;none&quot;};" parent="HTkEX30O9q5oVhzSK92n-1" vertex="1">
          <mxGeometry x="150" y="140" width="100" height="60" as="geometry" />
        </mxCell>
        <mxCell id="HTkEX30O9q5oVhzSK92n-2" value="" style="edgeStyle=elbowEdgeStyle;elbow=vertical;sourcePerimeterSpacing=0;targetPerimeterSpacing=0;startArrow=none;endArrow=none;rounded=0;curved=0;" parent="HTkEX30O9q5oVhzSK92n-1" source="HTkEX30O9q5oVhzSK92n-4" target="HTkEX30O9q5oVhzSK92n-5" edge="1">
          <mxGeometry relative="1" as="geometry" />
        </mxCell>
        <mxCell id="HTkEX30O9q5oVhzSK92n-5" value="FB_Axis" style="whiteSpace=wrap;html=1;align=center;verticalAlign=middle;treeFolding=1;treeMoving=1;newEdgeStyle={&quot;edgeStyle&quot;:&quot;elbowEdgeStyle&quot;,&quot;startArrow&quot;:&quot;none&quot;,&quot;endArrow&quot;:&quot;none&quot;};" parent="HTkEX30O9q5oVhzSK92n-1" vertex="1">
          <mxGeometry x="10" y="140" width="100" height="60" as="geometry" />
        </mxCell>
        <mxCell id="HTkEX30O9q5oVhzSK92n-12" style="edgeStyle=elbowEdgeStyle;rounded=0;orthogonalLoop=1;jettySize=auto;html=1;startArrow=none;endArrow=none;exitX=0.5;exitY=0;exitDx=0;exitDy=0;" parent="HTkEX30O9q5oVhzSK92n-1" source="HTkEX30O9q5oVhzSK92n-11" edge="1">
          <mxGeometry relative="1" as="geometry">
            <mxPoint x="270" y="120" as="targetPoint" />
            <Array as="points">
              <mxPoint x="480" y="130" />
            </Array>
          </mxGeometry>
        </mxCell>
        <mxCell id="HTkEX30O9q5oVhzSK92n-11" value="FB_Contactor" style="whiteSpace=wrap;html=1;align=center;verticalAlign=middle;treeFolding=1;treeMoving=1;newEdgeStyle={&quot;edgeStyle&quot;:&quot;elbowEdgeStyle&quot;,&quot;startArrow&quot;:&quot;none&quot;,&quot;endArrow&quot;:&quot;none&quot;};" parent="HTkEX30O9q5oVhzSK92n-1" vertex="1">
          <mxGeometry x="430" y="140" width="100" height="60" as="geometry" />
        </mxCell>
        <mxCell id="HTkEX30O9q5oVhzSK92n-14" style="edgeStyle=elbowEdgeStyle;rounded=0;orthogonalLoop=1;jettySize=auto;html=1;startArrow=none;endArrow=none;exitX=0.5;exitY=0;exitDx=0;exitDy=0;" parent="HTkEX30O9q5oVhzSK92n-1" source="HTkEX30O9q5oVhzSK92n-13" edge="1">
          <mxGeometry relative="1" as="geometry">
            <mxPoint x="340" y="120" as="targetPoint" />
            <Array as="points">
              <mxPoint x="620" y="120" />
            </Array>
          </mxGeometry>
        </mxCell>
        <mxCell id="HTkEX30O9q5oVhzSK92n-13" value="FB_Motor" style="whiteSpace=wrap;html=1;align=center;verticalAlign=middle;treeFolding=1;treeMoving=1;newEdgeStyle={&quot;edgeStyle&quot;:&quot;elbowEdgeStyle&quot;,&quot;startArrow&quot;:&quot;none&quot;,&quot;endArrow&quot;:&quot;none&quot;};" parent="HTkEX30O9q5oVhzSK92n-1" vertex="1">
          <mxGeometry x="570" y="140" width="100" height="60" as="geometry" />
        </mxCell>
      </root>
    </mxGraphModel>
  </diagram>
</mxfile>
